<svg id="Livello_1" data-name="Livello 1" xmlns="http://www.w3.org/2000/svg" viewBox="0 0 243.7 251.98"><path d="M1056.3,313.93c0,10.5,0,21,0,31.52a7.35,7.35,0,0,1-1.13,3.36q-12.3,21.36-24.68,42.65-17.33,29.94-34.65,59.89-11,19.14-22,38.33-9.81,17.11-19.64,34.24c-.59,1-1.25,2-2.17,3.47-3-5-5.88-9.59-8.58-14.26-6.71-11.6-13.31-23.26-20-34.86q-17.85-30.9-35.77-61.75-11-19-21.87-38-8.65-15.07-17.19-30.21a7.36,7.36,0,0,1-.93-3.42c-.07-10.27,0-20.55.53-31.09L952.07,493.71c34.74-60.38,69.16-120.17,103.57-180Z" transform="translate(-812.61 -311.34)"/><path d="M812.62,563.21V366c5.14,0,10.07-.08,15,.08.68,0,1.66,1.14,1.89,1.93a13.12,13.12,0,0,1,.11,3.61V540c0,5.59,0,5.6,5.76,5.6,2.9,0,5.81-.13,8.71,0,2.56.15,3.33-.88,3.3-3.37-.11-10,0-20.08,0-30.12V384.18l.7-.21c1.9,3.16,3.84,6.3,5.7,9.49,3.21,5.53,6.43,11.06,9.5,16.67a10.48,10.48,0,0,1,1.45,4.71q.1,73.11,0,146.23c0,.6-.07,1.2-.13,2.14Z" transform="translate(-812.61 -311.34)"/><path d="M1056.27,563.32h-16.86c-.08-1.29-.21-2.45-.21-3.61q0-72,0-144a8.16,8.16,0,0,1,.56-3.85c5.23-9.23,10.6-18.38,16.54-27.43Z" transform="translate(-812.61 -311.34)"/><path d="M812.66,329.07c0-4.82.11-9.65,0-14.47-.09-2.6.92-3.37,3.39-3.25,3.49.17,7,.11,10.49,0,2-.05,2.75.77,2.74,2.78q-.11,15,0,30c0,2.05-.89,2.8-2.82,2.78-3.62,0-7.24-.06-10.86,0-2.21,0-2.93-1-2.89-3.08C812.73,339,812.66,334,812.66,329.07Z" transform="translate(-812.61 -311.34)"/></svg>